<?xml version="1.0" encoding="UTF-8"?>
<svg width="257.42mm" height="74.621mm" version="1.1" viewBox="0 0 257.42 74.621" xmlns="http://www.w3.org/2000/svg" xmlns:cc="http://creativecommons.org/ns#" xmlns:dc="http://purl.org/dc/elements/1.1/" xmlns:rdf="http://www.w3.org/1999/02/22-rdf-syntax-ns#" xmlns:xlink="http://www.w3.org/1999/xlink">
 <defs>
  <clipPath id="SVGID_2_">
   <use width="100%" height="100%" xlink:href="#SVGID_1_"/>
  </clipPath>
  <clipPath id="SVGID_4_">
   <use width="100%" height="100%" xlink:href="#SVGID_3_"/>
  </clipPath>
  <clipPath id="SVGID_6_">
   <use width="100%" height="100%" xlink:href="#SVGID_5_"/>
  </clipPath>
  <clipPath id="SVGID_8_">
   <path class="st1" d="m68.805 132.37c-0.42333-0.21961-0.84402-0.44186-1.2674-0.66146 0.15875 0.082 0.33602 0.13229 0.52388 0.14552 0.0926 5e-3 0.18521 0 0.27781-0.0106 0.93662-0.13229 1.8177-1.18 2.0426-2.495l1.2674 0.66146c-0.2249 1.315-1.106 2.3627-2.0426 2.495-0.0926 0.0132-0.18521 0.0159-0.27781 0.0106-0.18785-0.0132-0.36512-0.0635-0.52388-0.14552z" enable-background="new" stroke-width=".26458"/>
  </clipPath>
  <clipPath id="SVGID_10_">
   <use width="100%" height="100%" xlink:href="#SVGID_9_"/>
  </clipPath>
  <clipPath id="SVGID_12_">
   <use width="100%" height="100%" xlink:href="#SVGID_11_"/>
  </clipPath>
  <clipPath id="SVGID_14_">
   <use width="100%" height="100%" xlink:href="#SVGID_13_"/>
  </clipPath>
 </defs>
 <metadata>
  <rdf:RDF>
   <cc:Work rdf:about="">
    <dc:format>image/svg+xml</dc:format>
    <dc:type rdf:resource="http://purl.org/dc/dcmitype/StillImage"/>
    <dc:title/>
   </cc:Work>
  </rdf:RDF>
 </metadata>
 <g transform="matrix(.26458 0 0 .26458 -37.726 -116.53)">
  <g class="st1" enable-background="new">
   <g fill="#cacfd2">
    <path class="st2" d="m376.37 506.02c0.52-0.3 1.05-0.58 1.57-0.82 0.12-0.06 0.25-0.11 0.37-0.17 0.33-0.15 0.66-0.29 0.98-0.42 0.16-0.06 0.31-0.12 0.47-0.18 0.3-0.11 0.6-0.21 0.9-0.31 0.16-0.05 0.32-0.1 0.47-0.15 0.31-0.09 0.62-0.17 0.93-0.24 0.14-0.03 0.27-0.07 0.41-0.1 0.44-0.09 0.88-0.18 1.32-0.24 0.54-0.08 1.08-0.12 1.61-0.15 0.17-0.01 0.34-0.01 0.51-0.01 0.37-0.01 0.73-0.01 1.09 0.01 0.19 0.01 0.38 0.02 0.57 0.04 0.34 0.03 0.67 0.06 1.01 0.11 0.19 0.03 0.37 0.05 0.56 0.08 0.35 0.06 0.7 0.13 1.04 0.21 0.15 0.04 0.3 0.07 0.45 0.1 0.53 0.14 1.04 0.3 1.55 0.49l0.3 0.12c0.41 0.16 0.81 0.33 1.2 0.52 0.3 0.14 0.6 0.28 0.89 0.44-1.52-0.83-3.04-1.65-4.56-2.48-0.22-0.12-0.45-0.24-0.68-0.35l-0.21-0.09c-0.39-0.19-0.79-0.36-1.2-0.51-0.1-0.04-0.2-0.09-0.31-0.12-0.51-0.19-1.02-0.35-1.55-0.48-0.04-0.01-0.07-0.02-0.11-0.03-0.12-0.03-0.24-0.05-0.35-0.07-0.34-0.08-0.69-0.15-1.03-0.21-0.19-0.03-0.37-0.06-0.56-0.08-0.33-0.05-0.67-0.08-1-0.11-0.19-0.01-0.38-0.03-0.57-0.04-0.36-0.02-0.72-0.02-1.09-0.01-0.17 0-0.34 0-0.51 0.01-0.53 0.03-1.07 0.07-1.61 0.15-0.44 0.06-0.87 0.14-1.32 0.24-0.13 0.03-0.27 0.07-0.41 0.1-0.31 0.07-0.62 0.15-0.93 0.24-0.16 0.05-0.32 0.1-0.47 0.15-0.3 0.09-0.6 0.2-0.9 0.31-0.16 0.06-0.31 0.12-0.47 0.18-0.33 0.13-0.65 0.27-0.98 0.42-0.1 0.04-0.2 0.08-0.3 0.13-0.02 0.01-0.05 0.03-0.07 0.04-0.52 0.25-1.05 0.53-1.57 0.82-0.13 0.07-0.26 0.15-0.39 0.23-0.44 0.26-0.87 0.54-1.31 0.83-0.08 0.06-0.16 0.1-0.24 0.15-0.08 0.06-0.17 0.12-0.25 0.17-0.47 0.33-0.9 0.65-1.33 0.96-0.14 0.1-0.27 0.2-0.4 0.3-0.3 0.22-0.58 0.44-0.86 0.65-0.13 0.1-0.26 0.2-0.38 0.29-0.36 0.28-0.7 0.55-1.03 0.83-0.05 0.04-0.09 0.08-0.14 0.11-0.31 0.26-0.62 0.52-0.91 0.79-0.04 0.04-0.09 0.08-0.13 0.11-0.05 0.04-0.09 0.09-0.14 0.14-0.39 0.36-0.77 0.71-1.14 1.08l-0.04 0.04c-0.36 0.37-0.71 0.74-1.06 1.13-0.04 0.04-0.08 0.08-0.12 0.13-0.04 0.04-0.07 0.08-0.11 0.13-0.12 0.14-0.24 0.28-0.36 0.43-0.12 0.14-0.23 0.27-0.34 0.41l-0.36 0.45c-0.11 0.14-0.23 0.29-0.34 0.43-0.12 0.16-0.24 0.32-0.36 0.48s-0.23 0.31-0.35 0.47c-0.11 0.15-0.22 0.31-0.33 0.47-0.1 0.13-0.19 0.26-0.29 0.4-0.04 0.06-0.09 0.13-0.14 0.2-0.07 0.1-0.14 0.2-0.21 0.3-0.15 0.22-0.31 0.45-0.46 0.68-0.1 0.15-0.2 0.29-0.3 0.44-0.14 0.2-0.28 0.42-0.42 0.63-0.11 0.17-0.22 0.33-0.33 0.5-0.24 0.37-0.49 0.75-0.74 1.15l4.56 2.48c0.26-0.4 0.5-0.79 0.75-1.16 0.11-0.16 0.21-0.32 0.31-0.48 0.14-0.22 0.29-0.44 0.43-0.65 0.1-0.15 0.2-0.3 0.3-0.44 0.15-0.23 0.31-0.45 0.46-0.67 0.07-0.11 0.15-0.21 0.22-0.32 0.14-0.2 0.27-0.39 0.41-0.58 0.12-0.16 0.23-0.32 0.34-0.48 0.12-0.16 0.23-0.31 0.35-0.47s0.25-0.33 0.37-0.49c0.11-0.15 0.22-0.29 0.34-0.43 0.12-0.15 0.24-0.31 0.36-0.46 0.11-0.14 0.22-0.27 0.34-0.4 0.12-0.15 0.25-0.29 0.37-0.44 0.07-0.08 0.14-0.16 0.22-0.24 0.35-0.39 0.7-0.77 1.07-1.14l0.03-0.03c0.37-0.37 0.75-0.73 1.14-1.09 0.09-0.08 0.18-0.16 0.27-0.25 0.3-0.27 0.6-0.53 0.92-0.8 0.04-0.03 0.08-0.07 0.12-0.1 0.33-0.27 0.68-0.55 1.04-0.83 0.12-0.1 0.25-0.2 0.38-0.29 0.28-0.21 0.56-0.43 0.86-0.65 0.13-0.1 0.27-0.2 0.4-0.3 0.42-0.31 0.86-0.63 1.33-0.96 0.16-0.12 0.33-0.22 0.49-0.33 0.44-0.3 0.87-0.57 1.31-0.83 0.13-0.07 0.26-0.15 0.38-0.22z"/>
    <path class="st2" d="m344.23 490.8c0.2 0.01 0.4 0.01 0.59 0.02 0.5 0.03 1 0.08 1.5 0.14 0.11 0.01 0.22 0.02 0.33 0.04 0.59 0.09 1.17 0.21 1.75 0.35l0.54 0.15c0.34 0.1 0.69 0.2 1.02 0.32 0.2 0.07 0.39 0.15 0.58 0.22 0.32 0.12 0.63 0.26 0.93 0.4 0.31 0.14 0.62 0.28 0.92 0.45-1.52-0.83-3.04-1.65-4.56-2.48-0.2-0.11-0.4-0.21-0.61-0.32-0.1-0.05-0.21-0.09-0.32-0.13-0.3-0.14-0.61-0.27-0.92-0.39-0.2-0.08-0.39-0.15-0.59-0.23-0.33-0.12-0.67-0.22-1.01-0.31-0.14-0.04-0.27-0.09-0.41-0.13-0.04-0.01-0.09-0.02-0.14-0.03-0.57-0.14-1.15-0.26-1.75-0.35-0.11-0.02-0.22-0.02-0.33-0.04-0.49-0.07-0.99-0.11-1.5-0.14-0.2-0.01-0.39-0.02-0.59-0.02-0.45-0.01-0.9-0.01-1.35 0-0.19 0.01-0.38 0.01-0.57 0.02-0.63 0.04-1.27 0.09-1.91 0.18-0.59 0.08-1.19 0.2-1.79 0.33-0.11 0.02-0.22 0.05-0.33 0.07-0.58 0.13-1.16 0.28-1.73 0.46-0.11 0.03-0.23 0.07-0.34 0.11-0.6 0.19-1.2 0.39-1.81 0.62h-0.01c-0.6 0.23-1.2 0.49-1.79 0.77-0.07 0.03-0.13 0.06-0.2 0.09s-0.13 0.07-0.2 0.1c-0.21 0.1-0.41 0.2-0.62 0.31-0.19 0.1-0.39 0.2-0.58 0.3-0.21 0.11-0.42 0.23-0.62 0.34-0.19 0.11-0.38 0.21-0.56 0.32-0.21 0.12-0.42 0.25-0.63 0.38-0.18 0.11-0.37 0.23-0.55 0.34-0.21 0.13-0.42 0.27-0.62 0.41-0.13 0.09-0.26 0.17-0.39 0.26-0.04 0.02-0.07 0.05-0.11 0.08-0.55 0.38-1.09 0.79-1.63 1.21-0.11 0.08-0.21 0.17-0.32 0.25-0.55 0.44-1.09 0.89-1.62 1.37l-0.03 0.03c-0.27 0.24-0.53 0.49-0.79 0.74-0.1 0.09-0.2 0.18-0.3 0.28-0.36 0.35-0.72 0.71-1.07 1.08-1.21 1.27-2.01 2.11-2.54 2.67-0.09 0.09-0.17 0.18-0.24 0.26v0.01c-0.07 0.07-0.13 0.14-0.19 0.21l-0.02 0.02c-0.07 0.08-0.13 0.15-0.18 0.21l-0.03 0.03c-0.05 0.06-0.1 0.12-0.13 0.17v0.01c-0.02 0.03-0.04 0.06-0.05 0.08v0.01c-0.01 0.02-0.02 0.04-0.03 0.05-0.02 0.06-0.01 0.09 0.02 0.1 0.14 0.08 0.29 0.16 0.43 0.23 0.01 0.02 0.02 0.04 0.02 0.06 0 0.01 0.01 0.03 0.01 0.05 0 0.03 0.01 0.05 0.01 0.08v0.16c0 0.03-0.01 0.05-0.01 0.08-0.01 0.04-0.01 0.08-0.02 0.13-0.01 0.03-0.01 0.07-0.02 0.1-0.01 0.05-0.03 0.1-0.04 0.16-0.01 0.04-0.02 0.08-0.04 0.12-0.02 0.06-0.04 0.13-0.07 0.2-0.02 0.05-0.03 0.09-0.05 0.14-0.04 0.11-0.09 0.23-0.14 0.36-0.01 0.02-0.02 0.04-0.02 0.06-0.07 0.15-0.14 0.32-0.22 0.5-0.02 0.05-0.05 0.11-0.08 0.16-0.07 0.14-0.14 0.28-0.21 0.43-0.03 0.07-0.07 0.14-0.11 0.21-0.08 0.15-0.16 0.31-0.25 0.48-0.04 0.08-0.08 0.15-0.13 0.23-0.1 0.18-0.21 0.38-0.32 0.59-0.05 0.08-0.09 0.16-0.14 0.25-0.17 0.29-0.34 0.59-0.53 0.92l4.56 2.48c0.19-0.33 0.37-0.63 0.53-0.92 0.05-0.09 0.1-0.17 0.14-0.26 0.11-0.19 0.21-0.37 0.3-0.55 0.02-0.04 0.05-0.09 0.08-0.14 0.03-0.06 0.05-0.1 0.08-0.15 0.08-0.15 0.16-0.29 0.23-0.43 0.04-0.08 0.08-0.16 0.12-0.23 0.08-0.15 0.14-0.29 0.21-0.43 0.02-0.05 0.05-0.11 0.08-0.16 0.08-0.18 0.16-0.35 0.23-0.5 0.01-0.02 0.01-0.04 0.02-0.06 0.05-0.13 0.1-0.25 0.15-0.36 0-0.01 0.01-0.03 0.02-0.04 0.01-0.04 0.02-0.07 0.04-0.11 0.02-0.07 0.05-0.13 0.06-0.19 0.01-0.04 0.02-0.08 0.04-0.13s0.03-0.11 0.04-0.15 0.02-0.07 0.02-0.11c0.01-0.04 0.02-0.08 0.02-0.12 0-0.03 0.01-0.06 0.01-0.09v-0.17c0-0.03-0.01-0.05-0.01-0.08 0-0.02-0.01-0.04-0.01-0.05-0.01-0.02-0.01-0.04-0.02-0.06-0.01-0.01-0.01-0.03-0.02-0.04-0.01-0.02-0.02-0.03-0.04-0.05-0.01-0.01-0.01-0.02-0.02-0.02-0.02-0.02-0.04-0.03-0.06-0.05-0.11-0.06-0.21-0.12-0.32-0.17 0-0.01-0.01-0.01 0-0.02l0.03-0.06c0.01-0.02 0.02-0.04 0.04-0.06 0.01-0.01 0.01-0.02 0.02-0.03 0.03-0.04 0.07-0.1 0.12-0.16 0.01-0.01 0.03-0.03 0.04-0.05 0.05-0.05 0.1-0.12 0.16-0.19 0.01-0.02 0.02-0.03 0.04-0.04 0.03-0.04 0.08-0.08 0.11-0.13 0.03-0.03 0.05-0.06 0.08-0.09 0.04-0.04 0.08-0.09 0.12-0.13 0.04-0.05 0.08-0.09 0.13-0.14l0.06-0.06c0.52-0.56 1.3-1.38 2.45-2.58 0.35-0.37 0.7-0.73 1.06-1.08 0.32-0.31 0.64-0.61 0.96-0.9l0.12-0.12c0.02-0.01 0.03-0.03 0.05-0.04 0.52-0.47 1.06-0.91 1.59-1.34 0.11-0.09 0.22-0.18 0.34-0.27 0.53-0.42 1.07-0.82 1.62-1.2 0.18-0.12 0.35-0.24 0.53-0.36 0.2-0.13 0.39-0.27 0.59-0.39 0.19-0.12 0.39-0.24 0.59-0.36l0.6-0.36c0.2-0.11 0.39-0.23 0.59-0.34s0.4-0.23 0.6-0.33c0.2-0.11 0.39-0.2 0.59-0.3s0.41-0.21 0.61-0.3c0.13-0.06 0.27-0.12 0.4-0.18 0.6-0.28 1.2-0.54 1.8-0.77s1.21-0.44 1.81-0.63c0.11-0.03 0.22-0.07 0.33-0.1 0.58-0.17 1.16-0.33 1.74-0.46 0.11-0.03 0.22-0.05 0.33-0.07 0.6-0.13 1.2-0.24 1.79-0.33 0.64-0.09 1.28-0.14 1.91-0.18 0.19-0.01 0.38-0.01 0.57-0.02 0.46 0 0.91 0 1.36 0.01z"/>
    <path class="st2" d="m276.06 442.15c-0.55 0.08-1.1 0.17-1.66 0.27l-0.39 211.42 4.56 2.48 0.39-211.42c0.56-0.1 1.11-0.19 1.66-0.27 7.38-1.04 13.55 0.63 18.85 3.51-1.52-0.83-2.7-1.65-4.21-2.47-5.3-2.89-11.82-4.56-19.2-3.52z"/>
   </g>
   <path class="st3" d="m280.62 444.63c23.86-3.35 38.66 19.48 32.57 44.64-2.17 8.96 6.5 11.14 3.25 21.52 6.13-10.41-2.3-1.54 5.32-9.54 5.6-5.88 12.32-9.36 18.65-10.25 11.04-1.55 20.87 4.78 21.36 19.93 0.11 3.34-0.15 6.9-0.7 10.6 4.63-7.26 6.81-9.66 13.12-14.13 3.25-2.3 6.49-3.58 9.61-4.01 13.1-1.84 23.78 11.21 21.69 25.78-2.12 14.77-8.92 26.82-26.23 41.81l-100.68 85.33 0.39-211.42c0.54-0.09 1.1-0.18 1.65-0.26z" fill="#d5dff3"/>
  </g>
 </g>
 <g transform="matrix(.26458 0 0 .26458 -37.726 -116.53)" image-rendering="auto">
  <g class="st1" enable-background="new">
   <g fill="#cacfd2">
    <path class="st2" d="m178.64 522.04c-7.31-0.95-13.85 0.32-19.08 3.47-1.39 0.84-2.79 1.68-4.18 2.52 5.23-3.15 11.77-4.42 19.08-3.47 3.53 0.46 7.25 1.43 11.07 2.97 3.1 1.24 6.11 2.79 9 4.57l4.18-2.52c-2.88-1.78-5.9-3.33-9-4.57-3.83-1.54-7.54-2.52-11.07-2.97z"/>
    <path class="st2" d="m188.42 584.97c-0.99-0.13-2.02-0.39-3.09-0.81-7.17-2.78-12.97-11.18-12.95-18.76 0.01-3.95 1.59-6.9 4.13-8.43-1.39 0.84-2.79 1.68-4.18 2.52-2.53 1.52-4.12 4.47-4.13 8.43-0.01 7.58 5.79 15.98 12.95 18.76 1.06 0.41 2.1 0.68 3.09 0.81 2.2 0.29 4.18-0.11 5.78-1.07 1.39-0.84 2.79-1.68 4.18-2.52-1.6 0.97-3.58 1.36-5.78 1.07z"/>
    <path class="st2" d="m351.98 639.7c-9.49-1.23-17.16-10.36-17.14-20.39 0.01-6.19 2.95-11.29 7.44-13.99-0.42 0.25-0.84 0.5-1.25 0.75-0.13 0.08-0.29 0.18-0.42 0.25-0.77 0.46-1.53 0.92-2.3 1.38-0.06 0.04-0.15 0.09-0.21 0.13-4.48 2.7-7.43 7.79-7.44 13.99-0.02 10.03 7.65 19.16 17.14 20.39 3.62 0.47 6.99-0.28 9.76-1.95 0.28-0.17 0.56-0.34 0.84-0.5 0.56-0.33 1.12-0.67 1.67-1.01 0.56-0.33 1.11-0.67 1.67-1.01-2.77 1.68-6.13 2.43-9.76 1.96z"/>
    <path class="st2" d="m429.22 692.49c-5.31-0.69-9.6-6.33-9.59-12.6 0.01-4.08 1.84-7.42 4.58-9.06-1.39 0.84-2.79 1.68-4.18 2.52-2.74 1.65-4.57 4.99-4.57 9.06-0.01 6.27 4.29 11.91 9.59 12.6 1.86 0.24 3.59-0.16 5.06-1.04 1.32-0.8 2.65-1.59 3.97-2.39 0.06-0.04 0.15-0.09 0.21-0.13-1.48 0.88-3.22 1.28-5.07 1.04z"/>
    <path class="st2" d="m430.33 645.42c-4.6-2.28-9.01-3.64-13.1-4.17-2.4-0.31-4.68-0.34-6.84-0.09 0.81-3.1 1.26-6.54 1.26-10.29 0.05-26.72-21.26-58.95-47.6-71.98-5.66-2.8-11.08-4.48-16.12-5.13-4.07-0.53-7.88-0.38-11.35 0.39 4.32-6.12 6.79-14.32 6.81-24.32 0.06-31.47-24.08-69.16-54.63-86.11-4.07-1.46-8.02-2.41-11.82-2.9-9.6-1.24-18.22 0.49-25.19 4.69-1.39 0.84-2.79 1.68-4.18 2.52 6.98-4.2 15.59-5.93 25.19-4.69 3.8 0.49 7.75 1.45 11.82 2.91 30.55 16.95 54.69 54.64 54.63 86.11-0.02 10-2.49 18.19-6.81 24.32 3.48-0.77 7.29-0.91 11.36-0.39 5.04 0.65 10.46 2.33 16.12 5.13 26.34 13.03 47.65 45.25 47.6 71.98-0.01 3.75-0.45 7.19-1.26 10.29 2.15-0.24 4.44-0.22 6.84 0.09 4.09 0.53 8.5 1.89 13.1 4.17 21.38 10.57 30.44 27.6 30.4 49.3-0.02 9.78-4.56 17.15-11.5 21.32 0.63-0.38 1.25-0.75 1.88-1.13 0.21-0.13 0.42-0.25 0.63-0.38 0.56-0.34 1.12-0.67 1.67-1.01 6.94-4.18 11.48-11.54 11.5-21.32 0.04-21.7-9.02-38.74-30.41-49.31z"/>
    <path class="st2" d="m221.2 479.31c-7.53-0.98-14.58 0.25-20 3.51-1.39 0.84-2.79 1.68-4.18 2.52 5.42-3.26 12.47-4.49 20-3.51 3.57 0.46 7.25 1.42 10.93 2.89 0.47 0.19 0.93 0.4 1.4 0.6l4.18-2.52c-0.47-0.2-0.92-0.41-1.4-0.6-3.68-1.47-7.36-2.43-10.93-2.89z"/>
   </g>
   <path class="st4" d="m426.15 647.94c21.38 10.57 30.44 27.6 30.4 49.3-0.03 17.32-14.25 27.08-30.86 24.93-4.19-0.54-8.53-1.84-12.84-3.97l-227.48-103.69c-23.67-9.47-42.82-36.62-42.78-60.65 0.04-20.14 13.56-31.69 31.87-29.32 3.53 0.46 7.25 1.43 11.07 2.97 3.1 1.24 6.11 2.79 9 4.57-5.08-8.52-8.11-17.92-8.1-26.86 0.03-17.17 14.14-25.54 30.59-23.4 3.57 0.46 7.25 1.42 10.93 2.89 0.47 0.19 0.93 0.4 1.4 0.6 0.04-28.2 18.36-45.22 43.42-41.98 3.8 0.49 7.75 1.45 11.82 2.91 30.55 16.95 54.69 54.64 54.63 86.11-0.02 10-2.49 18.19-6.81 24.32 3.48-0.77 7.29-0.91 11.36-0.39 5.04 0.65 10.46 2.33 16.12 5.13 26.34 13.03 47.65 45.25 47.6 71.98-0.01 3.75-0.45 7.19-1.26 10.29 2.15-0.24 4.44-0.22 6.84 0.09 4.08 0.53 8.49 1.89 13.08 4.17zm-78.35-5.72c9.48 1.23 17.18-5.91 17.2-15.94s-7.65-19.16-17.13-20.39c-9.49-1.23-17.19 5.91-17.21 15.94s7.65 19.16 17.14 20.39m-163.56-54.73c5.68 0.74 9.89-3.05 9.91-9.5 0.01-7.57-5.78-15.98-12.94-18.76-1.06-0.41-2.1-0.68-3.09-0.81-5.68-0.74-9.9 3.04-9.91 9.5-0.01 7.58 5.79 15.98 12.95 18.76 1.06 0.42 2.09 0.68 3.08 0.81m240.8 107.51c5.31 0.69 9.62-3.84 9.64-10.11 0.01-6.27-4.28-11.91-9.59-12.6s-9.62 3.84-9.64 10.11c-0.02 6.28 4.28 11.92 9.59 12.6" fill="#fff"/>
  </g>
 </g>
 <g transform="matrix(.26458 0 0 .26458 -37.726 -116.53)">
  <path class="st2" d="m348.21 640.47c-0.01-0.15-0.02-0.29-0.03-0.44l-0.03-0.42c-0.01-0.12-0.01-0.25-0.03-0.37-0.04-0.36-0.09-0.72-0.14-1.07-0.01-0.07-0.02-0.15-0.03-0.22 0-0.02 0-0.03-0.01-0.05-0.08-0.51-0.18-1.03-0.3-1.53-0.01-0.03-0.02-0.06-0.02-0.09-0.09-0.38-0.2-0.75-0.31-1.12-0.06-0.21-0.11-0.42-0.17-0.63-0.01-0.02-0.01-0.04-0.02-0.05-0.03-0.1-0.07-0.19-0.1-0.29-0.15-0.44-0.3-0.87-0.47-1.3-0.07-0.18-0.15-0.35-0.22-0.53-0.09-0.21-0.17-0.42-0.27-0.63l-0.45-0.9c-0.19-0.37-0.38-0.73-0.59-1.08-0.07-0.13-0.14-0.25-0.21-0.38-0.28-0.46-0.57-0.92-0.87-1.36-0.07-0.1-0.15-0.2-0.22-0.3l-0.54-0.75c-0.06-0.08-0.13-0.16-0.2-0.24-0.12-0.16-0.26-0.31-0.38-0.47-0.23-0.27-0.46-0.54-0.7-0.8-0.13-0.14-0.27-0.29-0.4-0.43-0.08-0.08-0.15-0.17-0.23-0.25-0.13-0.13-0.28-0.25-0.41-0.37-0.22-0.21-0.45-0.42-0.68-0.62-0.08-0.07-0.15-0.15-0.23-0.21-0.18-0.15-0.37-0.29-0.56-0.43-0.14-0.11-0.27-0.22-0.41-0.32-0.05-0.04-0.1-0.08-0.16-0.12-0.33-0.24-0.67-0.47-1.02-0.68-0.02-0.01-0.04-0.02-0.06-0.04-0.06-0.04-0.12-0.07-0.18-0.11-0.23-0.14-0.46-0.28-0.7-0.41-0.16-0.09-0.33-0.17-0.49-0.25-0.07-0.04-0.15-0.08-0.22-0.11-0.05-0.03-0.11-0.06-0.16-0.08-0.28-0.13-0.57-0.26-0.86-0.37-0.1-0.04-0.2-0.07-0.3-0.11-0.07-0.03-0.15-0.06-0.22-0.08-0.1-0.04-0.21-0.08-0.31-0.12-0.27-0.09-0.54-0.18-0.82-0.25-0.11-0.03-0.21-0.06-0.32-0.08l-0.51-0.12c-0.09-0.02-0.18-0.03-0.26-0.05-0.11-0.02-0.23-0.04-0.34-0.06-0.07-0.01-0.14-0.03-0.21-0.04-0.19-0.03-0.38-0.05-0.56-0.08-0.09-0.01-0.17-0.02-0.26-0.03-0.28-0.03-0.55-0.04-0.83-0.05h-0.87c-0.31 0.01-0.62 0.04-0.93 0.08h-0.02c-0.02 0-0.04 0.01-0.05 0.01-0.32 0.04-0.64 0.1-0.95 0.16-0.07 0.01-0.13 0.04-0.2 0.06-0.19 0.04-0.37 0.1-0.56 0.16-0.16 0.05-0.32 0.08-0.48 0.13-0.15 0.05-0.3 0.11-0.45 0.16l-4.48 1.75c0.3-0.12 0.62-0.21 0.94-0.3 0.18-0.05 0.37-0.11 0.56-0.15 0.36-0.09 0.73-0.16 1.11-0.21 0.03 0 0.07-0.01 0.1-0.02 0.42-0.05 0.85-0.08 1.28-0.08h0.26c0.45 0 0.9 0.02 1.36 0.07 0.26 0.03 0.52 0.07 0.78 0.11 0.11 0.02 0.23 0.04 0.34 0.06 0.26 0.05 0.51 0.1 0.77 0.17 0.49 0.12 0.98 0.28 1.46 0.46 0.07 0.02 0.14 0.05 0.21 0.08 0.45 0.17 0.9 0.36 1.33 0.57 0.08 0.04 0.15 0.08 0.22 0.11 0.41 0.21 0.82 0.43 1.21 0.67l0.15 0.09c0.42 0.26 0.84 0.55 1.24 0.85 0.14 0.1 0.28 0.21 0.41 0.32 0.27 0.21 0.53 0.42 0.79 0.65 0.23 0.2 0.46 0.41 0.68 0.62s0.43 0.41 0.64 0.62c0.13 0.14 0.27 0.28 0.4 0.42 0.24 0.26 0.48 0.54 0.72 0.81 0.12 0.15 0.24 0.29 0.36 0.44 0.27 0.34 0.53 0.69 0.79 1.04 0.06 0.08 0.12 0.16 0.18 0.25 0.31 0.45 0.6 0.91 0.88 1.38 0.07 0.11 0.13 0.23 0.19 0.34 0.21 0.37 0.41 0.74 0.61 1.11 0.08 0.16 0.16 0.31 0.23 0.47 0.17 0.35 0.33 0.7 0.48 1.06 0.07 0.17 0.15 0.34 0.22 0.52 0.17 0.44 0.34 0.88 0.48 1.33 0.03 0.08 0.06 0.17 0.09 0.25 0.07 0.24 0.13 0.48 0.2 0.72 0.1 0.36 0.21 0.73 0.3 1.09 0.13 0.55 0.24 1.11 0.33 1.68 0.01 0.07 0.02 0.15 0.03 0.22 0.07 0.48 0.13 0.96 0.17 1.45 0.01 0.14 0.02 0.28 0.03 0.41 0.03 0.54 0.06 1.08 0.05 1.62 0 0.39-0.02 0.77-0.05 1.15-0.01 0.12-0.02 0.23-0.03 0.35-0.02 0.25-0.05 0.51-0.08 0.76-0.02 0.13-0.04 0.26-0.05 0.39-0.04 0.24-0.07 0.47-0.12 0.7-0.02 0.12-0.05 0.25-0.07 0.37-0.05 0.25-0.11 0.5-0.17 0.74-0.02 0.09-0.04 0.19-0.07 0.28-0.09 0.33-0.19 0.66-0.3 0.97-0.03 0.08-0.06 0.15-0.08 0.23-0.09 0.24-0.17 0.47-0.27 0.7l-0.18 0.39c-0.08 0.17-0.16 0.35-0.24 0.52l-0.24 0.45c-0.08 0.15-0.16 0.29-0.24 0.44-0.12 0.19-0.24 0.38-0.36 0.57-0.07 0.11-0.14 0.22-0.22 0.33-0.24 0.34-0.5 0.67-0.77 0.98-0.06 0.07-0.12 0.14-0.19 0.21-0.23 0.25-0.46 0.49-0.71 0.72-0.08 0.07-0.16 0.15-0.24 0.22-0.3 0.27-0.62 0.53-0.95 0.76-0.05 0.04-0.11 0.07-0.16 0.11-0.29 0.2-0.58 0.38-0.89 0.55-0.1 0.05-0.19 0.11-0.29 0.16-0.36 0.19-0.73 0.37-1.11 0.51l4.48-1.75c0.38-0.15 0.75-0.33 1.11-0.51 0.1-0.05 0.19-0.1 0.29-0.16 0.3-0.17 0.6-0.36 0.89-0.55 0.05-0.04 0.11-0.07 0.16-0.11 0.33-0.24 0.64-0.49 0.95-0.76 0.08-0.07 0.16-0.15 0.24-0.22 0.24-0.23 0.48-0.47 0.71-0.72 0.04-0.05 0.09-0.09 0.13-0.14 0.02-0.02 0.04-0.05 0.05-0.07 0.27-0.31 0.53-0.64 0.77-0.98 0.02-0.02 0.04-0.04 0.05-0.07 0.06-0.09 0.11-0.18 0.17-0.26 0.12-0.18 0.24-0.37 0.36-0.56 0.03-0.05 0.06-0.09 0.08-0.13 0.06-0.1 0.11-0.22 0.17-0.32 0.08-0.14 0.15-0.28 0.22-0.43 0.03-0.05 0.05-0.1 0.08-0.15 0.06-0.13 0.12-0.27 0.18-0.4 0.05-0.12 0.11-0.23 0.16-0.35 0.02-0.04 0.04-0.08 0.05-0.12 0.08-0.19 0.14-0.38 0.21-0.58 0.03-0.09 0.07-0.17 0.1-0.26 0-0.01 0.01-0.02 0.01-0.03 0.1-0.29 0.19-0.58 0.27-0.88 0-0.02 0.01-0.04 0.01-0.05 0.03-0.09 0.04-0.19 0.07-0.28 0.05-0.18 0.1-0.37 0.14-0.55 0.01-0.06 0.02-0.12 0.04-0.18 0.03-0.12 0.05-0.25 0.07-0.37s0.05-0.24 0.07-0.37c0.02-0.11 0.03-0.22 0.05-0.33l0.06-0.39c0.01-0.08 0.02-0.15 0.03-0.23 0.02-0.17 0.03-0.35 0.05-0.53 0.01-0.12 0.02-0.23 0.03-0.35 0-0.04 0.01-0.08 0.01-0.12 0.02-0.34 0.03-0.68 0.04-1.03v-0.04c-0.03-0.39-0.03-0.77-0.05-1.15z" fill="#cacfd2"/>
  <path class="st3" d="m326.76 621.38c0.62 0.07 1.25 0.18 1.89 0.35 8.47 2.14 15.23 11.85 15.1 21.67-0.11 9.09-6.08 15.1-13.67 14.25-0.62-0.07-1.24-0.18-1.88-0.34-8.48-2.15-15.23-11.86-15.11-21.68 0.12-9.08 6.07-15.09 13.67-14.25z" fill="#d5dff3"/>
 </g>
 <g transform="matrix(.26458 0 0 .26458 -37.726 -116.53)">
  <path class="st3" d="m156.03 574.47c0.43 0.04 0.86 0.11 1.31 0.22 0.94 0.21 1.91 0.57 2.92 1.05 6.78 3.33 12.25 11.93 12.23 19.19-0.02 5.68-3.37 8.88-8.06 8.42-0.43-0.04-0.86-0.11-1.31-0.21-0.94-0.21-1.91-0.57-2.92-1.05-6.78-3.33-12.25-11.92-12.23-19.2 0.01-5.68 3.37-8.88 8.06-8.42z" fill="#d5dff3"/>
  <path class="st2" d="m175.75 591.63c-0.01-0.19-0.03-0.38-0.04-0.57-0.01-0.08-0.01-0.16-0.02-0.24 0-0.04 0-0.07-0.01-0.11-0.03-0.34-0.08-0.67-0.13-1.01-0.01-0.04-0.02-0.08-0.02-0.11-0.02-0.12-0.05-0.24-0.07-0.36-0.04-0.22-0.08-0.44-0.13-0.66-0.02-0.08-0.04-0.16-0.06-0.25-0.05-0.2-0.1-0.41-0.16-0.61-0.04-0.15-0.07-0.31-0.12-0.46-0.03-0.09-0.06-0.17-0.09-0.26-0.09-0.3-0.19-0.59-0.3-0.88-0.05-0.14-0.09-0.28-0.14-0.42-0.02-0.05-0.05-0.1-0.07-0.15-0.23-0.6-0.49-1.2-0.78-1.79-0.02-0.03-0.03-0.07-0.04-0.1-0.05-0.11-0.12-0.21-0.17-0.31-0.2-0.4-0.41-0.79-0.64-1.17l-0.3-0.51c-0.23-0.37-0.46-0.74-0.71-1.1-0.07-0.1-0.13-0.21-0.2-0.31-0.03-0.04-0.07-0.08-0.1-0.12-0.36-0.5-0.73-1-1.12-1.47-0.06-0.08-0.13-0.14-0.19-0.22-0.34-0.4-0.68-0.78-1.04-1.16-0.06-0.06-0.11-0.13-0.17-0.19-0.09-0.09-0.18-0.17-0.27-0.26-0.24-0.23-0.48-0.46-0.72-0.68-0.16-0.15-0.32-0.29-0.49-0.43-0.25-0.22-0.51-0.42-0.78-0.63-0.11-0.09-0.22-0.19-0.34-0.27-0.05-0.04-0.1-0.07-0.15-0.1-0.34-0.24-0.68-0.47-1.02-0.69-0.09-0.06-0.19-0.13-0.28-0.19l-0.06-0.03c-0.08-0.05-0.17-0.09-0.26-0.14-0.25-0.15-0.5-0.3-0.76-0.43-0.09-0.05-0.18-0.09-0.28-0.14-0.24-0.12-0.48-0.23-0.72-0.33-0.23-0.1-0.45-0.18-0.68-0.27-0.04-0.01-0.07-0.03-0.11-0.04-0.02-0.01-0.04-0.02-0.06-0.02-0.24-0.09-0.49-0.16-0.72-0.23-0.21-0.06-0.42-0.11-0.62-0.16-0.01 0-0.02 0-0.03-0.01-0.21-0.05-0.42-0.09-0.63-0.12-0.19-0.03-0.38-0.06-0.57-0.08-0.03 0-0.05 0-0.08-0.01-0.16-0.02-0.32-0.03-0.47-0.03h-0.53c-0.14 0-0.28 0.01-0.43 0.02h-0.11c-0.18 0.01-0.36 0.04-0.53 0.06-0.03 0-0.06 0.01-0.09 0.02l-0.18 0.03c-0.09 0.02-0.19 0.03-0.27 0.05-0.05 0.01-0.1 0.03-0.16 0.04-0.09 0.02-0.17 0.04-0.25 0.07-0.06 0.02-0.12 0.03-0.18 0.05-0.05 0.02-0.1 0.04-0.16 0.06-0.13 0.05-0.26 0.1-0.38 0.15-0.06 0.02-0.12 0.04-0.17 0.07-0.04 0.02-0.07 0.04-0.11 0.06-0.15 0.07-0.29 0.15-0.44 0.24l-0.21 0.12c-0.21 0.13-0.41 0.27-0.6 0.43l-3.26 2.66c0.19-0.16 0.39-0.3 0.6-0.43l0.21-0.12c0.14-0.08 0.29-0.16 0.44-0.23 0.09-0.04 0.18-0.08 0.28-0.12 0.12-0.05 0.25-0.1 0.38-0.15 0.11-0.04 0.22-0.08 0.34-0.11 0.08-0.02 0.17-0.05 0.25-0.07 0.14-0.04 0.29-0.07 0.43-0.1l0.18-0.03c0.21-0.03 0.42-0.06 0.64-0.08h0.09c0.19-0.01 0.38-0.02 0.58-0.02h0.19c0.22 0.01 0.44 0.02 0.67 0.04 0.43 0.04 0.86 0.11 1.31 0.22 0.46 0.1 0.93 0.24 1.4 0.41 0.04 0.01 0.08 0.03 0.11 0.04 0.46 0.17 0.93 0.36 1.4 0.59 0.34 0.17 0.68 0.36 1.02 0.56 0.09 0.05 0.18 0.1 0.28 0.16l0.33 0.21c0.35 0.22 0.7 0.45 1.03 0.7 0.16 0.12 0.33 0.25 0.49 0.37 0.26 0.2 0.52 0.41 0.78 0.63 0.16 0.14 0.33 0.29 0.49 0.43 0.25 0.22 0.49 0.45 0.72 0.68l0.45 0.45c0.36 0.37 0.71 0.76 1.04 1.16 0.06 0.07 0.13 0.14 0.19 0.22 0.39 0.47 0.76 0.96 1.12 1.47 0.1 0.15 0.2 0.29 0.3 0.44 0.24 0.36 0.48 0.72 0.7 1.08 0.1 0.17 0.21 0.35 0.31 0.52 0.22 0.39 0.43 0.78 0.63 1.17 0.07 0.14 0.14 0.27 0.21 0.41 0.29 0.59 0.55 1.19 0.78 1.79l0.21 0.57c0.11 0.29 0.21 0.59 0.3 0.88 0.08 0.24 0.14 0.48 0.21 0.73 0.05 0.2 0.11 0.4 0.16 0.59 0.07 0.31 0.14 0.62 0.2 0.92 0.02 0.12 0.05 0.24 0.07 0.35 0.07 0.42 0.12 0.83 0.16 1.25 0.01 0.07 0.01 0.15 0.02 0.22 0.03 0.41 0.06 0.82 0.05 1.23 0 0.37-0.02 0.73-0.05 1.09-0.01 0.07-0.01 0.13-0.02 0.19-0.03 0.29-0.07 0.57-0.11 0.84-0.01 0.05-0.02 0.11-0.03 0.16-0.06 0.3-0.13 0.6-0.21 0.88l-0.06 0.18c-0.07 0.24-0.15 0.46-0.24 0.68-0.02 0.06-0.04 0.12-0.07 0.17-0.11 0.26-0.23 0.52-0.36 0.75-0.05 0.1-0.11 0.18-0.17 0.27-0.09 0.16-0.19 0.31-0.29 0.46-0.12 0.17-0.25 0.32-0.38 0.47-0.06 0.07-0.12 0.15-0.19 0.22-0.2 0.22-0.41 0.42-0.64 0.6l3.26-2.66c0.23-0.18 0.44-0.39 0.64-0.6 0.07-0.07 0.12-0.15 0.19-0.23 0.13-0.15 0.26-0.3 0.38-0.47 0.01-0.02 0.03-0.03 0.04-0.05 0.09-0.13 0.17-0.28 0.25-0.41 0.05-0.09 0.11-0.17 0.17-0.27 0.01-0.01 0.01-0.02 0.02-0.03 0.11-0.21 0.21-0.42 0.31-0.64 0.01-0.03 0.02-0.05 0.03-0.08 0.02-0.06 0.04-0.12 0.07-0.17 0.05-0.12 0.1-0.24 0.14-0.37 0.03-0.1 0.06-0.21 0.09-0.31 0.02-0.06 0.04-0.12 0.06-0.19 0.01-0.04 0.03-0.08 0.04-0.13 0.06-0.21 0.11-0.43 0.15-0.65 0.01-0.03 0.01-0.07 0.02-0.1 0.01-0.05 0.02-0.11 0.03-0.17 0.02-0.14 0.05-0.27 0.07-0.41s0.03-0.28 0.04-0.42c0.01-0.07 0.01-0.13 0.02-0.19 0-0.04 0.01-0.08 0.01-0.11 0.02-0.25 0.03-0.51 0.03-0.77v-0.21c0-0.22 0-0.44-0.01-0.65z" fill="#cacfd2"/>
 </g>
 <g transform="matrix(.26458 0 0 .26458 -37.726 -116.53)">
  <path class="st2" d="m431.07 686.24c0-0.09-0.01-0.19-0.02-0.28 0-0.07-0.01-0.14-0.02-0.21-0.01-0.08-0.01-0.16-0.02-0.24-0.02-0.25-0.06-0.51-0.09-0.76v-0.02c-0.04-0.28-0.09-0.56-0.15-0.84-0.01-0.05-0.02-0.1-0.04-0.15-0.02-0.12-0.05-0.23-0.08-0.35-0.03-0.14-0.06-0.29-0.1-0.43-0.02-0.07-0.05-0.14-0.07-0.22-0.05-0.17-0.1-0.35-0.16-0.52-0.04-0.11-0.06-0.22-0.1-0.33-0.02-0.05-0.04-0.1-0.06-0.16-0.13-0.38-0.28-0.75-0.44-1.11-0.02-0.04-0.03-0.08-0.05-0.11 0-0.01-0.01-0.02-0.01-0.02-0.16-0.36-0.34-0.71-0.52-1.05-0.06-0.11-0.12-0.21-0.19-0.32-0.13-0.23-0.26-0.46-0.41-0.68-0.08-0.13-0.18-0.26-0.26-0.39-0.13-0.19-0.26-0.37-0.39-0.55-0.1-0.13-0.2-0.26-0.31-0.38-0.14-0.17-0.28-0.33-0.42-0.49-0.06-0.07-0.12-0.14-0.18-0.21-0.05-0.05-0.1-0.09-0.15-0.14-0.15-0.15-0.3-0.3-0.46-0.45l-0.21-0.21c-0.04-0.04-0.09-0.07-0.13-0.11-0.08-0.07-0.17-0.14-0.25-0.21s-0.16-0.14-0.24-0.2c-0.09-0.07-0.19-0.14-0.29-0.21-0.05-0.03-0.09-0.07-0.14-0.1-0.03-0.02-0.07-0.05-0.1-0.07-0.16-0.11-0.32-0.21-0.48-0.3-0.04-0.03-0.09-0.05-0.14-0.08-0.03-0.02-0.07-0.04-0.1-0.05-0.07-0.04-0.14-0.08-0.21-0.11-0.13-0.07-0.27-0.13-0.41-0.2-0.04-0.02-0.09-0.04-0.13-0.05-0.03-0.01-0.06-0.03-0.1-0.04-0.06-0.03-0.12-0.05-0.18-0.08-0.13-0.05-0.25-0.1-0.38-0.14-0.08-0.03-0.17-0.05-0.25-0.08l-0.12-0.03c-0.12-0.03-0.25-0.06-0.37-0.09s-0.25-0.05-0.37-0.07c-0.03 0-0.05-0.01-0.07-0.01-0.1-0.01-0.2-0.03-0.3-0.04-0.12-0.01-0.25-0.02-0.37-0.03h-0.39c-0.14 0-0.27 0.01-0.41 0.02s-0.28 0.03-0.41 0.05h-0.01c-0.17 0.03-0.33 0.06-0.49 0.1-0.09 0.02-0.17 0.05-0.25 0.08-0.07 0.02-0.13 0.04-0.2 0.06-0.05 0.02-0.1 0.03-0.15 0.05-0.2 0.08-0.39 0.16-0.58 0.26l-4.74 2.44c0.24-0.12 0.48-0.22 0.73-0.31 0.07-0.03 0.14-0.05 0.22-0.07 0.24-0.07 0.48-0.14 0.74-0.18h0.03c0.28-0.04 0.57-0.07 0.87-0.07h0.07c0.3 0 0.6 0.02 0.91 0.07 0.3 0.05 0.62 0.12 0.93 0.21 0.27 0.08 0.54 0.18 0.81 0.29 0.03 0.02 0.07 0.03 0.1 0.04 0.24 0.1 0.48 0.22 0.72 0.35 0.05 0.02 0.09 0.05 0.14 0.08 0.23 0.13 0.46 0.28 0.69 0.43 0.06 0.04 0.11 0.08 0.17 0.12 0.17 0.12 0.34 0.25 0.5 0.38 0.09 0.07 0.18 0.14 0.27 0.22 0.11 0.09 0.21 0.19 0.32 0.29 0.17 0.15 0.33 0.31 0.49 0.48 0.1 0.1 0.19 0.21 0.29 0.31 0.16 0.18 0.31 0.36 0.47 0.54 0.09 0.11 0.18 0.22 0.26 0.33 0.15 0.2 0.3 0.41 0.45 0.62 0.07 0.11 0.15 0.21 0.22 0.32 0.16 0.25 0.31 0.51 0.46 0.77 0.04 0.08 0.09 0.16 0.14 0.24 0.19 0.35 0.37 0.71 0.53 1.07 0.02 0.03 0.03 0.07 0.04 0.1 0.16 0.37 0.31 0.75 0.45 1.14 0.06 0.16 0.11 0.32 0.16 0.48 0.06 0.17 0.11 0.35 0.16 0.53 0.06 0.21 0.11 0.43 0.17 0.64 0.03 0.12 0.06 0.24 0.08 0.36 0.07 0.33 0.13 0.66 0.18 0.99v0.02c0.05 0.32 0.08 0.65 0.11 0.97 0.01 0.09 0.01 0.18 0.02 0.27 0.02 0.33 0.04 0.66 0.04 0.99 0 0.47-0.03 0.92-0.07 1.35 0 0.05-0.01 0.1-0.02 0.15-0.05 0.39-0.11 0.78-0.19 1.14-0.01 0.05-0.02 0.11-0.04 0.16-0.08 0.37-0.19 0.72-0.3 1.06-0.01 0.04-0.03 0.08-0.04 0.12-0.12 0.34-0.26 0.65-0.41 0.96-0.02 0.05-0.05 0.1-0.07 0.14-0.15 0.29-0.32 0.56-0.49 0.82-0.06 0.08-0.11 0.16-0.17 0.24-0.16 0.22-0.32 0.42-0.5 0.61-0.03 0.04-0.07 0.08-0.1 0.11-0.21 0.22-0.44 0.42-0.67 0.6-0.05 0.04-0.11 0.08-0.16 0.12-0.25 0.18-0.5 0.34-0.77 0.48l4.74-2.44c0.27-0.14 0.52-0.3 0.77-0.48 0.05-0.04 0.11-0.08 0.16-0.12 0.23-0.18 0.46-0.38 0.67-0.6 0.04-0.04 0.07-0.08 0.11-0.12 0.09-0.1 0.19-0.2 0.28-0.32 0.07-0.09 0.13-0.19 0.2-0.28 0.06-0.08 0.13-0.17 0.19-0.26 0.03-0.04 0.06-0.08 0.09-0.13 0.12-0.19 0.24-0.38 0.35-0.59 0.02-0.04 0.04-0.07 0.05-0.11l0.06-0.12c0.05-0.11 0.11-0.21 0.16-0.32 0.08-0.18 0.15-0.36 0.22-0.55 0.01-0.03 0.02-0.07 0.03-0.1 0.01-0.04 0.03-0.08 0.04-0.12 0.04-0.11 0.08-0.21 0.11-0.32 0.06-0.18 0.11-0.37 0.15-0.55 0.02-0.07 0.03-0.14 0.05-0.21 0.01-0.04 0.02-0.07 0.02-0.1 0.02-0.08 0.04-0.17 0.06-0.25 0.04-0.19 0.07-0.38 0.1-0.58 0.02-0.13 0.03-0.25 0.05-0.38 0-0.03 0.01-0.05 0.01-0.08 0-0.05 0.01-0.09 0.02-0.14 0.02-0.21 0.03-0.42 0.04-0.63 0.01-0.2 0.02-0.41 0.02-0.61v-0.05c-0.01-0.19-0.01-0.43-0.02-0.66z" fill="#cacfd2"/>
  <path class="st3" d="m416.99 675.84c0.3 0.05 0.62 0.12 0.93 0.21 4.67 1.37 8.45 7.36 8.43 13.38-0.02 5.61-3.33 9.28-7.58 8.63-0.31-0.05-0.62-0.11-0.93-0.21-4.67-1.37-8.45-7.36-8.43-13.38 0.03-5.61 3.34-9.27 7.58-8.63z" fill="#d5dff3"/>
 </g>
 <g transform="matrix(.26458 0 0 .26458 -37.726 -116.53)">
  <g class="st1" enable-background="new">
   <g class="st1" enable-background="new">
    <clipPath>
     <use width="100%" height="100%" xlink:href="#SVGID_1_"/>
    </clipPath>
    <path class="st5" d="m222.95 663.87-4.79-2.5c0.12 0.07 0.25 0.13 0.38 0.18l4.79 2.5c-0.13-0.05-0.26-0.11-0.38-0.18" clip-path="url(#SVGID_2_)" fill="#006893"/>
    <g fill="#cacfd2">
     <path class="st6" d="m223.33 664.06-4.79-2.5c0.48 0.22 0.98 0.39 1.5 0.5l4.79 2.5c-0.52-0.12-1.02-0.29-1.5-0.5" clip-path="url(#SVGID_2_)"/>
     <path class="st6" d="m224.83 664.56-4.79-2.5c0.96 0.21 1.97 0.25 3.02 0.1 1.12-0.16 2.26-0.53 3.41-1.11l4.79 2.5c-1.15 0.58-2.29 0.95-3.41 1.11-1.05 0.15-2.06 0.11-3.02-0.1" clip-path="url(#SVGID_2_)"/>
     <path class="st6" d="m231.25 663.55-4.79-2.5c0.66-0.34 1.32-0.74 1.97-1.22l4.79 2.5c-0.65 0.48-1.31 0.89-1.97 1.22" clip-path="url(#SVGID_2_)"/>
     <path class="st6" d="m233.22 662.33-4.79-2.5c0.35-0.25 0.69-0.53 1.03-0.83l4.79 2.5c-0.34 0.3-0.68 0.57-1.03 0.83" clip-path="url(#SVGID_2_)"/>
    </g>
   </g>
   <g class="st1" enable-background="new">
    <clipPath>
     <use width="100%" height="100%" xlink:href="#SVGID_3_"/>
    </clipPath>
    <g fill="#cacfd2">
     <path class="st7" d="m234.25 661.5-4.79-2.5 0.6-0.54 4.79 2.5-0.6 0.54" clip-path="url(#SVGID_4_)"/>
     <path class="st7" d="m234.85 660.95-4.79-2.5c0.52-0.5 1.01-1.02 1.47-1.58l4.79 2.5c-0.46 0.56-0.95 1.09-1.47 1.58" clip-path="url(#SVGID_4_)"/>
     <path class="st7" d="m236.32 659.37-4.79-2.5c0.49-0.59 0.95-1.21 1.38-1.85l4.79 2.5c-0.43 0.65-0.89 1.27-1.38 1.85" clip-path="url(#SVGID_4_)"/>
     <path class="st7" d="m237.7 657.52-4.79-2.5c0.48-0.73 0.92-1.49 1.32-2.28l4.79 2.5c-0.4 0.79-0.84 1.55-1.32 2.28" clip-path="url(#SVGID_4_)"/>
     <path class="st7" d="m239.02 655.25-4.79-2.5c0.49-0.98 0.92-1.99 1.27-3.02l4.79 2.5c-0.36 1.03-0.78 2.04-1.27 3.02" clip-path="url(#SVGID_4_)"/>
     <path class="st7" d="m240.28 652.22-4.79-2.5c1.44-4.26 1.64-8.84 0.23-12.54-0.93-2.47-2.45-4.21-4.29-5.17l4.79 2.5c1.84 0.96 3.35 2.7 4.29 5.17 1.41 3.7 1.22 8.29-0.23 12.54" clip-path="url(#SVGID_4_)"/>
    </g>
   </g>
   <g class="st1" enable-background="new">
    <clipPath>
     <use width="100%" height="100%" xlink:href="#SVGID_5_"/>
    </clipPath>
    <g fill="#cacfd2">
     <path class="st8" d="m193.43 715.94-4.79-2.5c-7.14-3.73-12.08-13.9-12.79-27.38-0.48-9.09 1.03-18.36 4-27.11l4.79 2.5c-2.97 8.75-4.47 18.02-4 27.11 0.71 13.48 5.64 23.65 12.79 27.38" clip-path="url(#SVGID_6_)"/>
     <path class="st8" d="m184.63 661.45-4.79-2.5c1.28-3.77 2.83-7.44 4.6-10.96l4.79 2.5c-1.77 3.52-3.32 7.19-4.6 10.96" clip-path="url(#SVGID_6_)"/>
     <path class="st8" d="m189.23 650.49-4.79-2.5c1.5-2.97 3.16-5.83 4.96-8.55l4.79 2.5c-1.8 2.72-3.46 5.58-4.96 8.55" clip-path="url(#SVGID_6_)"/>
     <path class="st8" d="m194.19 641.94-4.79-2.5c1.64-2.48 3.39-4.84 5.24-7.06l4.79 2.5c-1.85 2.22-3.6 4.58-5.24 7.06" clip-path="url(#SVGID_6_)"/>
     <path class="st8" d="m199.43 634.88-4.79-2.5c1.76-2.11 3.6-4.09 5.51-5.91l4.79 2.5c-1.91 1.83-3.75 3.81-5.51 5.91" clip-path="url(#SVGID_6_)"/>
     <path class="st8" d="m204.94 628.97-4.79-2.5c1.01-0.97 2.05-1.89 3.1-2.77 0.66-0.55 1.31-1.06 1.96-1.54l4.79 2.5c-0.65 0.48-1.3 0.99-1.96 1.54-1.05 0.88-2.08 1.8-3.1 2.77" clip-path="url(#SVGID_6_)"/>
     <path class="st8" d="m210 624.66-4.79-2.5c1.46-1.08 2.91-1.98 4.32-2.72l4.79 2.5c-1.41 0.74-2.86 1.64-4.32 2.72" clip-path="url(#SVGID_6_)"/>
    </g>
   </g>
   <g class="st1" enable-background="new">
    <path class="st1" d="m68.805 132.37c-0.42333-0.21961-0.84402-0.44186-1.2674-0.66146 0.15875 0.082 0.33602 0.13229 0.52388 0.14552 0.0926 5e-3 0.18521 0 0.27781-0.0106 0.93662-0.13229 1.8177-1.18 2.0426-2.495l1.2674 0.66146c-0.2249 1.315-1.106 2.3627-2.0426 2.495-0.0926 0.0132-0.18521 0.0159-0.27781 0.0106-0.18785-0.0132-0.36512-0.0635-0.52388-0.14552z" enable-background="new" fill="#cacfd2" stroke-width=".26458"/>
    <clipPath>
     <path class="st1" d="m68.805 132.37c-0.42333-0.21961-0.84402-0.44186-1.2674-0.66146 0.15875 0.082 0.33602 0.13229 0.52388 0.14552 0.0926 5e-3 0.18521 0 0.27781-0.0106 0.93662-0.13229 1.8177-1.18 2.0426-2.495l1.2674 0.66146c-0.2249 1.315-1.106 2.3627-2.0426 2.495-0.0926 0.0132-0.18521 0.0159-0.27781 0.0106-0.18785-0.0132-0.36512-0.0635-0.52388-0.14552z" enable-background="new" stroke-width=".26458"/>
    </clipPath>
    <path class="st9" d="m260.05 500.29-4.79-2.5c0.08 0.04 0.16 0.08 0.25 0.12l4.79 2.5c-0.09-0.04-0.17-0.08-0.25-0.12" clip-path="url(#SVGID_8_)" fill="#006893"/>
    <path class="st10" d="m260.3 500.41-4.79-2.5c0.3 0.14 0.62 0.24 0.95 0.32l4.79 2.5c-0.33-0.08-0.65-0.19-0.95-0.32" clip-path="url(#SVGID_8_)" fill="#cacfd2"/>
   </g>
   <path class="st2" d="m262.62 479.09c1.6 0.83 3.19 1.67 4.79 2.5 2.69 1.41 4.16 5.3 3.4 9.77l-4.79-2.5c0.75-4.47-0.71-8.36-3.4-9.77z" fill="#cacfd2"/>
   <g class="st1" enable-background="new">
    <clipPath>
     <use width="100%" height="100%" xlink:href="#SVGID_9_"/>
    </clipPath>
    <path class="st11" d="m232.28 543.67-4.79-2.5c-0.01-0.22-0.03-0.44-0.05-0.67l4.79 2.5c0.02 0.24 0.04 0.45 0.05 0.67" clip-path="url(#SVGID_10_)" fill="#cacfd2"/>
   </g>
   <g class="st1" enable-background="new">
    <clipPath>
     <use width="100%" height="100%" xlink:href="#SVGID_11_"/>
    </clipPath>
    <g fill="#cacfd2">
     <path class="st12" d="m214.32 621.94-4.79-2.5c-3.86-3.43-6.41-9.74-6.87-18.55-0.46-8.73 1.19-18.49 4.33-27.75l4.79 2.5c-3.14 9.26-4.79 19.03-4.33 27.75 0.46 8.81 3 15.12 6.87 18.55" clip-path="url(#SVGID_12_)"/>
     <path class="st12" d="m211.78 575.64-4.79-2.5c1.36-4 2.99-7.91 4.85-11.61l4.79 2.5c-1.86 3.7-3.5 7.61-4.85 11.61" clip-path="url(#SVGID_12_)"/>
     <path class="st12" d="m216.63 564.04-4.79-2.5c1.41-2.79 2.94-5.46 4.59-7.95l4.79 2.5c-1.65 2.49-3.18 5.16-4.59 7.95" clip-path="url(#SVGID_12_)"/>
     <path class="st12" d="m221.22 556.09-4.79-2.5c1.33-2.01 2.73-3.9 4.19-5.65l4.79 2.5c-1.46 1.75-2.86 3.64-4.19 5.65" clip-path="url(#SVGID_12_)"/>
     <path class="st12" d="m225.41 550.44-4.79-2.5c1.25-1.5 2.55-2.9 3.88-4.18l4.79 2.5c-1.33 1.28-2.63 2.67-3.88 4.18" clip-path="url(#SVGID_12_)"/>
     <path class="st12" d="m229.29 546.26-4.79-2.5c0.67-0.63 1.34-1.24 2.02-1.81 0.33-0.27 0.65-0.52 0.96-0.78l4.79 2.5c-0.31 0.25-0.64 0.5-0.96 0.78-0.68 0.57-1.35 1.18-2.02 1.81" clip-path="url(#SVGID_12_)"/>
    </g>
   </g>
   <g class="st1" enable-background="new">
    <clipPath>
     <use width="100%" height="100%" xlink:href="#SVGID_13_"/>
    </clipPath>
    <g class="st13" clip-path="url(#SVGID_14_)">
     <path class="st14" d="m267.41 481.59-4.79-2.5c2.69 1.41 4.16 5.3 3.4 9.77-0.13 0.77-0.32 1.51-0.56 2.22-0.21 0.63-0.47 1.24-0.76 1.81-0.24 0.47-0.5 0.91-0.77 1.34-0.25 0.38-0.52 0.74-0.8 1.07-0.27 0.32-0.55 0.62-0.83 0.89-0.29 0.28-0.6 0.54-0.91 0.77-0.36 0.27-0.74 0.5-1.12 0.69-0.64 0.33-1.3 0.54-1.97 0.64-0.35 0.05-0.7 0.07-1.05 0.04-0.27-0.02-0.53-0.05-0.78-0.11l4.79 2.5c0.25 0.06 0.51 0.09 0.78 0.11 0.35 0.02 0.7 0 1.05-0.04 0.67-0.09 1.33-0.31 1.97-0.64 0.38-0.19 0.76-0.43 1.12-0.69 0.31-0.23 0.62-0.49 0.91-0.77s0.57-0.57 0.83-0.89c0.28-0.33 0.54-0.69 0.79-1.07 0.28-0.42 0.54-0.87 0.77-1.34 0.29-0.57 0.54-1.18 0.76-1.81 0.24-0.71 0.43-1.45 0.56-2.22 0.76-4.47-0.7-8.36-3.39-9.77z" fill="#00658f"/>
     <path class="st2" d="m241.71 479.41c-2.89 5.74-5.43 11.81-7.54 18.03-4.87 14.38-7.44 29.53-6.73 43.08l4.79 2.5c-0.71-13.54 1.85-28.7 6.73-43.08 2.11-6.22 4.65-12.29 7.54-18.03 2.19-4.33 4.57-8.48 7.13-12.34l-4.79-2.5c-2.56 3.86-4.95 8-7.13 12.34z" fill="#cacfd2"/>
    </g>
    <path class="st15" d="m274.95 442.29c-0.58 0.26-1.16 0.53-1.74 0.83-1.97 1.01-3.99 2.26-6.03 3.77-0.89 0.66-1.79 1.36-2.69 2.12-1.06 0.88-2.1 1.82-3.13 2.8-2.07 1.98-4.08 4.15-6.03 6.48-2.27 2.72-4.44 5.66-6.5 8.78l4.79 2.5c2.06-3.12 4.24-6.06 6.5-8.78 1.95-2.33 3.96-4.51 6.03-6.48 1.03-0.98 2.07-1.92 3.13-2.8 0.9-0.76 1.8-1.46 2.69-2.12 2.04-1.51 4.06-2.76 6.03-3.77 0.58-0.3 1.16-0.57 1.74-0.83z" clip-path="url(#SVGID_14_)" fill="#cacfd2"/>
   </g>
   <path class="st3" d="m269.29 451.5c3.58-3 7.08-5.28 10.46-6.78l-1.39 212.16-65.8 55.1c-3.78 3.16-7.44 4.88-10.86 5.36-11.42 1.61-20.09-10.56-21.06-28.79-1.24-23.7 11.01-48.63 27.41-62.36 2.14-1.79 4.24-3.2 6.28-4.26-3.86-3.43-6.41-9.74-6.87-18.55-1.09-20.61 9.6-47 23.87-58.95 0.33-0.27 0.65-0.52 0.96-0.78-0.01-0.22-0.03-0.44-0.05-0.67-1.69-31.97 14.91-72.94 37.05-91.48zm-35.04 210c6.04-5.26 8.84-15.02 6.27-21.82-1.68-4.44-5.23-6.51-9.18-5.96-2.1 0.3-4.3 1.33-6.4 3.16-6.04 5.26-8.85 15.04-6.27 21.83 1.67 4.43 5.23 6.5 9.17 5.95 2.1-0.3 4.31-1.34 6.41-3.16m36.55-170.14c0.93-5.46-1.47-10.08-5.38-10.31-0.35-0.02-0.7 0-1.05 0.04-3.54 0.5-6.86 4.46-7.71 9.43-0.93 5.46 1.47 10.09 5.37 10.31 0.35 0.02 0.7 0 1.05-0.04 3.54-0.5 6.87-4.47 7.72-9.43" fill="#d5dff3"/>
   <path class="st2" d="m269.29 451.5-4.79-2.5c3.58-3 7.09-5.22 10.46-6.71l4.79 2.44c-3.38 1.49-6.88 3.77-10.46 6.77z" fill="#cacfd2"/>
  </g>
 </g>
 <g transform="matrix(.26458 0 0 .26458 -37.726 -116.53)">
  <path class="st2" d="m262.85 655.28c0.28 0.01 0.56 0.03 0.83 0.07 0.04 0.01 0.09 0.02 0.13 0.03 0.25 0.05 0.49 0.11 0.73 0.19 0.04 0.01 0.09 0.03 0.14 0.04 0.28 0.1 0.56 0.22 0.82 0.36l-4.56-2.48c-0.07-0.04-0.14-0.07-0.21-0.11s-0.16-0.05-0.23-0.09c-0.22-0.1-0.45-0.18-0.68-0.25-0.06-0.02-0.11-0.05-0.17-0.06-0.13-0.03-0.27-0.06-0.4-0.08-0.04-0.01-0.08-0.02-0.12-0.02-0.27-0.04-0.56-0.07-0.84-0.07h-0.19c-0.29 0-0.59 0.02-0.89 0.06-0.36 0.05-0.73 0.13-1.11 0.24-0.23 0.07-0.46 0.15-0.69 0.23-0.09 0.03-0.18 0.08-0.27 0.11-0.13 0.06-0.26 0.11-0.4 0.17-0.01 0-0.02 0.01-0.02 0.01-0.26 0.12-0.52 0.26-0.79 0.41-0.06 0.04-0.12 0.08-0.19 0.12-0.2 0.12-0.4 0.25-0.6 0.38-0.03 0.02-0.05 0.03-0.08 0.05-0.08 0.05-0.15 0.12-0.23 0.17-0.14 0.1-0.28 0.2-0.42 0.31-0.11 0.09-0.22 0.18-0.34 0.27-0.13 0.11-0.26 0.22-0.4 0.33-0.04 0.04-0.09 0.07-0.13 0.11l-0.12 0.12c-0.35 0.32-0.69 0.65-1.03 1.02-0.12 0.12-0.23 0.25-0.34 0.38-0.15 0.17-0.29 0.35-0.44 0.53-0.08 0.1-0.17 0.2-0.25 0.3-0.27 0.34-0.54 0.69-0.79 1.06-0.01 0.01-0.02 0.03-0.03 0.04-0.1 0.15-0.19 0.3-0.29 0.44-0.18 0.27-0.36 0.53-0.52 0.81-0.1 0.17-0.19 0.34-0.29 0.51-0.13 0.22-0.26 0.44-0.38 0.67l-0.06 0.12c-0.27 0.51-0.53 1.03-0.76 1.55-0.03 0.07-0.06 0.13-0.08 0.2-0.21 0.47-0.4 0.94-0.58 1.42-0.02 0.05-0.04 0.1-0.06 0.16-0.04 0.12-0.08 0.24-0.12 0.37-0.13 0.38-0.26 0.75-0.37 1.13-0.06 0.2-0.12 0.39-0.17 0.59-0.1 0.37-0.2 0.75-0.28 1.12-0.04 0.19-0.09 0.37-0.13 0.56-0.09 0.44-0.17 0.88-0.23 1.32-0.02 0.11-0.04 0.23-0.06 0.34-0.08 0.55-0.13 1.09-0.16 1.63-0.01 0.14-0.01 0.27-0.01 0.41-0.02 0.4-0.03 0.79-0.02 1.18 0 0.18 0.01 0.36 0.02 0.55 0.02 0.34 0.04 0.68 0.07 1.02l0.06 0.54c0.05 0.34 0.11 0.67 0.18 1 0.03 0.15 0.06 0.31 0.09 0.46 0.11 0.47 0.24 0.92 0.4 1.36 0.74 2.01 1.89 3.41 3.3 4.17 1.52 0.83 3.04 1.65 4.56 2.48-1.41-0.76-2.56-2.16-3.3-4.17-0.16-0.44-0.29-0.89-0.4-1.36-0.04-0.15-0.06-0.31-0.09-0.46-0.07-0.33-0.13-0.66-0.17-1-0.02-0.18-0.04-0.37-0.06-0.55-0.03-0.33-0.06-0.67-0.07-1.01-0.01-0.18-0.02-0.37-0.02-0.55-0.01-0.39 0-0.78 0.02-1.17 0.01-0.14 0.01-0.28 0.01-0.43 0.03-0.54 0.09-1.08 0.16-1.62l0.06-0.36c0.07-0.43 0.14-0.86 0.23-1.29 0.04-0.19 0.09-0.38 0.13-0.57 0.08-0.37 0.18-0.74 0.28-1.1 0.06-0.2 0.11-0.4 0.17-0.6 0.11-0.37 0.24-0.74 0.36-1.11 0.06-0.18 0.12-0.37 0.19-0.55 0.17-0.47 0.36-0.93 0.56-1.38 0.03-0.08 0.06-0.15 0.1-0.23 0.24-0.53 0.49-1.04 0.76-1.55 0.14-0.27 0.29-0.52 0.44-0.78 0.1-0.17 0.19-0.34 0.29-0.51 0.18-0.29 0.36-0.57 0.55-0.85 0.09-0.13 0.17-0.27 0.26-0.4 0.04-0.05 0.08-0.11 0.12-0.16 0.39-0.54 0.8-1.06 1.22-1.56 0.17-0.2 0.34-0.41 0.51-0.6 0.34-0.37 0.69-0.7 1.04-1.02 0.08-0.07 0.16-0.15 0.25-0.22 0.13-0.12 0.27-0.23 0.4-0.34l0.33-0.27c0.13-0.11 0.27-0.2 0.4-0.3l0.33-0.24c0.2-0.14 0.4-0.26 0.6-0.38 0.06-0.04 0.12-0.08 0.18-0.11 0.26-0.15 0.52-0.29 0.78-0.41 0.15-0.07 0.3-0.13 0.45-0.2 0.08-0.03 0.16-0.07 0.24-0.1 0.23-0.09 0.46-0.17 0.69-0.23 0.37-0.11 0.74-0.19 1.11-0.24 0.3-0.04 0.59-0.06 0.88-0.06 0.08-0.02 0.15-0.02 0.21-0.02z" fill="#cacfd2"/>
  <path class="st4" d="m261.77 655.34c3.06-0.43 5.72 1.2 7.05 4.82 2.28 6.21-0.24 15.94-5.61 21.74-1.87 2.02-3.84 3.29-5.71 3.84-0.38 0.11-0.75 0.19-1.11 0.24-3.06 0.43-5.72-1.19-7.05-4.8-2.28-6.21 0.24-15.95 5.62-21.76 1.87-2.01 3.83-3.29 5.7-3.84 0.37-0.11 0.74-0.19 1.11-0.24z" fill="#fff"/>
 </g>
 <g transform="matrix(.26458 0 0 .26458 -37.726 -116.53)">
  <path class="st2" d="m285 487.55c0.13 0.02 0.27 0.04 0.4 0.07 0.05 0.01 0.11 0.03 0.16 0.05 0.18 0.05 0.35 0.11 0.51 0.19 0.08 0.04 0.16 0.07 0.24 0.11l-4.56-2.48c-0.05-0.02-0.09-0.05-0.14-0.07-0.03-0.01-0.06-0.02-0.09-0.03-0.17-0.08-0.34-0.14-0.52-0.19-0.03-0.01-0.06-0.03-0.1-0.04-0.02-0.01-0.04-0.01-0.07-0.01-0.13-0.03-0.26-0.05-0.39-0.06-0.06-0.01-0.13-0.02-0.19-0.03-0.2-0.01-0.4-0.02-0.61 0l-0.24 0.03c-0.23 0.03-0.46 0.08-0.69 0.15-0.24 0.07-0.47 0.16-0.71 0.27-0.02 0.01-0.05 0.02-0.07 0.03-0.03 0.01-0.06 0.04-0.09 0.05-0.3 0.14-0.59 0.31-0.88 0.51h-0.01c-0.01 0.01-0.02 0.02-0.03 0.02-0.25 0.17-0.49 0.37-0.72 0.57-0.03 0.03-0.06 0.05-0.1 0.08-0.03 0.02-0.05 0.05-0.07 0.08-0.25 0.23-0.49 0.47-0.73 0.74l-0.03 0.03c-0.02 0.02-0.04 0.05-0.05 0.07-0.26 0.29-0.5 0.61-0.74 0.94-0.02 0.02-0.04 0.04-0.05 0.06-0.01 0.01-0.01 0.02-0.02 0.03-0.3 0.42-0.57 0.88-0.83 1.36-0.01 0.02-0.02 0.03-0.03 0.04 0 0.01-0.01 0.02-0.01 0.03-0.16 0.29-0.3 0.59-0.44 0.9-0.04 0.08-0.07 0.16-0.1 0.24-0.1 0.23-0.2 0.47-0.29 0.7-0.02 0.05-0.04 0.1-0.06 0.16-0.02 0.04-0.03 0.09-0.04 0.13-0.16 0.43-0.3 0.88-0.42 1.33-0.02 0.06-0.03 0.12-0.04 0.18-0.12 0.48-0.23 0.97-0.31 1.48-0.66 4.18 0.49 7.62 2.67 8.8l4.56 2.48c-2.18-1.19-3.33-4.62-2.67-8.8 0.08-0.5 0.18-0.99 0.31-1.48 0.02-0.06 0.03-0.12 0.04-0.18 0.12-0.46 0.26-0.9 0.42-1.33 0.03-0.09 0.07-0.19 0.1-0.28 0.09-0.24 0.19-0.48 0.29-0.71 0.03-0.08 0.07-0.16 0.1-0.24 0.14-0.31 0.29-0.61 0.45-0.9 0.01-0.02 0.03-0.05 0.04-0.07 0.26-0.48 0.54-0.93 0.83-1.36 0.02-0.03 0.05-0.06 0.07-0.1 0.24-0.33 0.48-0.64 0.74-0.94 0.03-0.03 0.05-0.06 0.08-0.09 0.24-0.27 0.48-0.51 0.73-0.74 0.06-0.05 0.11-0.1 0.17-0.15 0.23-0.2 0.47-0.4 0.71-0.57 0.02-0.01 0.03-0.03 0.05-0.04 0.29-0.2 0.58-0.36 0.87-0.5 0.06-0.03 0.12-0.06 0.17-0.09 0.23-0.11 0.47-0.2 0.71-0.27 0.23-0.06 0.46-0.11 0.7-0.15l0.24-0.03c0.21-0.02 0.41-0.01 0.61 0 0.05 0 0.11 0.01 0.17 0.02z" fill="#cacfd2"/>
  <path class="st3" d="m283.97 487.55 0.24-0.03c3.48-0.26 5.61 3.87 4.77 9.24-0.76 4.88-3.74 9.1-6.89 10.03-0.23 0.06-0.46 0.11-0.69 0.15l-0.24 0.03c-3.48 0.27-5.61-3.87-4.76-9.24 0.76-4.89 3.72-9.1 6.87-10.02 0.23-0.08 0.46-0.13 0.7-0.16z" fill="#d5dff3"/>
 </g>
 <g transform="translate(-36.188 -161.84)" fill="#fff" stroke-width=".26458" aria-label="MICROCKS">
  <path d="m151.79 199.08h-3.048l-0.254-4.953-0.5842-6.2992h-0.254l-3.6576 9.525h-2.667l-3.3274-9.525h-0.2286l-0.635 5.969-0.3556 5.2832h-2.8956l1.651-16.358h3.9624l0.6604 2.413 2.5908 7.747h0.2286l2.7178-7.747 0.7366-2.413h3.8862z"/>
  <path d="m158.29 193.9 0.1524 5.1816h-3.4544l0.1778-4.8768-0.1778-11.481h3.5052z"/>
  <path d="m168.78 182.52q2.3876 0 4.2926 0.9906l-0.6096 2.8702-0.2794 0.127q-0.762-0.5334-1.6764-0.8382t-1.8796-0.3048q-4.0386 0-4.0386 5.3086 0 2.8702 1.0414 4.318 1.0668 1.4224 3.0988 1.4224 0.9398 0 1.9304-0.2794 1.016-0.3048 1.8288-0.8128l0.3048 0.1778-0.2794 2.921q-1.9304 0.889-4.064 0.889-3.6576 0-5.588-2.1336-1.905-2.1336-1.905-6.1214 0-4.064 2.032-6.2992 2.0574-2.2352 5.7912-2.2352z"/>
  <path d="m183.96 192.58q1.9812 3.1496 3.937 5.6896l-0.0508 0.381q-1.651 0.5842-3.3782 0.6858l-0.3556-0.2794q-1.8288-3.1496-2.9718-5.4864h-2.4638v0.3302l0.1524 5.1816h-3.4544l0.1778-4.8768-0.1778-11.481 6.2738-0.0254q2.5654 0 3.9624 1.27 1.397 1.2446 1.397 3.5814 0 1.5748-0.8128 2.8956-0.7874 1.2954-2.2352 2.1336zm-5.2324-1.6764 2.5146 0.1016q2.159-0.7366 2.159-3.1242 0-1.2954-0.7112-1.9304-0.6858-0.6604-2.1336-0.7112l-1.7272 0.1016z"/>
  <path d="m196.59 182.49q3.4544 0 5.3086 2.1082 1.8796 2.0828 1.8796 5.9436 0 4.2164-2.032 6.5024t-5.7404 2.286q-3.429 0-5.3086-2.1336-1.8542-2.159-1.8542-6.096 0-4.1402 2.0066-6.3754 2.032-2.2352 5.7404-2.2352zm-0.3048 2.7686q-2.032 0-2.9464 1.27t-0.9144 4.1402q0 3.2766 0.889 4.6736 0.9144 1.397 2.9972 1.397 2.032 0 2.9464-1.27 0.9144-1.2954 0.9144-4.2164 0-3.2258-0.9144-4.5974-0.889-1.397-2.9718-1.397z"/>
  <path d="m212.98 182.52q2.3876 0 4.2926 0.9906l-0.6096 2.8702-0.2794 0.127q-0.762-0.5334-1.6764-0.8382t-1.8796-0.3048q-4.0386 0-4.0386 5.3086 0 2.8702 1.0414 4.318 1.0668 1.4224 3.0988 1.4224 0.9398 0 1.9304-0.2794 1.016-0.3048 1.8288-0.8128l0.3048 0.1778-0.2794 2.921q-1.9304 0.889-4.064 0.889-3.6576 0-5.588-2.1336-1.905-2.1336-1.905-6.1214 0-4.064 2.032-6.2992 2.0574-2.2352 5.7912-2.2352z"/>
  <path d="m226.38 190.44q2.7178 3.7846 6.2738 7.9248l-0.0508 0.381q-1.4224 0.3556-3.3528 0.5842l-0.4064-0.2032q-3.3274-4.4196-5.9182-8.4836l-0.0508 3.2512 0.127 5.1816h-3.429l0.1778-4.8768-0.1778-11.481h3.4798l-0.127 7.5946 4.5974-6.0198 0.9398-1.5748h3.7084z"/>
  <path d="m239.67 182.52q2.0828 0 4.1402 0.8382l-0.5588 2.9718-0.508 0.2032q-0.8636-0.6096-1.8034-0.9652-0.9144-0.3556-1.6764-0.3556-1.016 0-1.6256 0.5588-0.6096 0.5334-0.6096 1.2446 0 0.7366 0.6604 1.2446 0.6858 0.508 2.1336 1.1938 1.397 0.635 2.2606 1.1938 0.889 0.5334 1.4986 1.4224 0.635 0.889 0.635 2.1844 0 1.397-0.762 2.5654-0.762 1.143-2.159 1.8288-1.397 0.6604-3.2258 0.6604-2.413 0-4.8514-1.0414l0.4826-3.2004 0.381-0.2032q1.016 0.889 2.2098 1.3716 1.2192 0.4572 2.159 0.4572 1.1176 0 1.7272-0.5334 0.635-0.5588 0.635-1.3208 0-0.8128-0.6858-1.3208-0.6604-0.508-2.159-1.2192-1.3716-0.6096-2.2352-1.143t-1.4732-1.4224-0.6096-2.159q0-1.4224 0.762-2.5654 0.762-1.1684 2.1336-1.8288t3.1242-0.6604z"/>
 </g>
 <g transform="translate(-36.188 -161.84)" fill="#fff" stroke-width=".26458" aria-label="API Mocking &amp; Testing">
  <path d="m143.23 218.52h-1.7949l-0.254-1.2192-0.47414-1.5071-2.3029-0.0508-2.0828 0.0508-0.508 1.4224-0.27093 1.3039h-1.7441l3.8777-10.871h2.0489zm-2.9633-4.1487-1.5579-5.0122h-0.11853l-1.778 5.0122 1.7103 0.0339z"/>
  <path d="m148.72 207.63q1.6425 0 2.5231 0.84666 0.89747 0.82974 0.89747 2.4045 0 1.8288-1.1345 2.8956-1.1176 1.0668-3.0819 1.0668h-1.2023v0.254l0.0847 3.4205h-1.778l0.11854-3.2681-0.11854-7.603zm-0.28786 5.8589q0.93133-0.18627 1.4055-0.79586 0.49107-0.62654 0.49107-1.6595 0-1.016-0.52494-1.5071-0.508-0.49107-1.5579-0.52493l-1.4393 0.0508-0.0677 4.4026z"/>
  <path d="m155.75 215.1 0.0847 3.4205h-1.778l0.11854-3.2681-0.11854-7.603h1.7949z"/>
  <path d="m172.52 218.52h-1.5579l-0.22013-3.302-0.508-4.9107h-0.11854l-2.794 7.0104h-1.3885l-2.5908-7.0104h-0.1524l-0.508 4.7583-0.27093 3.4544h-1.4732l1.1345-10.871h1.9981l0.50799 1.6256 2.0828 5.7742h0.13547l2.2013-5.825 0.50799-1.5748h1.9812z"/>
  <path d="m178.35 209.92q1.8627 0 2.8787 1.1007 1.0329 1.0837 1.0329 3.0649 0 2.2013-1.1007 3.3867-1.0837 1.1853-3.0988 1.1853-1.8796 0-2.8956-1.1176t-1.016-3.1665q0-2.1336 1.0837-3.2851 1.1007-1.1684 3.1157-1.1684zm-0.1524 1.3377q-1.2192 0-1.7949 0.69426-0.5588 0.67733-0.5588 2.2183 0 1.7103 0.5588 2.4384t1.778 0.72813q1.2361 0 1.8119-0.67733 0.57573-0.69427 0.57573-2.2521 0-1.6933-0.5588-2.4215t-1.8119-0.72813z"/>
  <path d="m187.8 209.93q1.3885 0 2.4215 0.54186l-0.3048 1.4393-0.1524 0.0508q-0.42334-0.32173-0.98213-0.508-0.54187-0.18626-1.1345-0.18626-2.3368 0-2.3368 2.9125 0 1.524 0.6096 2.3199 0.6096 0.77893 1.778 0.77893 0.57574 0 1.1684-0.18627 0.59267-0.18626 1.0499-0.508l0.16933 0.0847-0.13547 1.4393q-1.1345 0.52493-2.3368 0.52493-1.9473 0-2.9803-1.1176-1.0329-1.1176-1.0329-3.1835 0-2.1167 1.0837-3.2512 1.1007-1.1515 3.1157-1.1515z"/>
  <path d="m195.46 214.01q1.6087 2.0828 3.6068 4.1317l-0.0339 0.23706q-0.79587 0.2032-1.5917 0.28787l-0.23707-0.1016q-2.1167-2.54-3.4883-4.4535v-0.11853l2.7263-3.1665 0.54187-0.79586 1.8627-0.0169zm-1.7949 1.8119 0.0677 2.6924h-1.6256l0.0677-2.54-0.0677-5.9436h1.6425z"/>
  <path d="m202.2 215.83 0.0677 2.6924h-1.6256l0.0677-2.54-0.0677-5.9436h1.6425z"/>
  <path d="m212.43 215.93 0.0508 2.5908h-1.7611l-4.0132-5.9605h-0.1016l-0.0169 3.0819 0.0508 2.8787h-1.4732l0.0677-2.4892-0.0508-5.9944h1.7272l4.0132 5.9605h0.13546l-0.0508-5.9097 1.5071-0.0847z"/>
  <path d="m218.93 209.93q1.3208 0 2.6755 0.52493l-0.49107 1.5409h-0.16933q-0.64347-0.38947-1.1684-0.5588-0.508-0.16933-1.1345-0.16933-1.3208 0-1.9473 0.74506-0.62653 0.72814-0.62653 2.3707 0 1.5917 0.59267 2.2691 0.59266 0.6604 1.9473 0.6604 0.3556 0 0.67734-0.0677 0.32173-0.0677 0.79586-0.23706v-0.7112l-0.0169-1.27 1.4901-0.1016-0.0169 1.1176v2.0659q-1.7272 0.52493-3.0141 0.52493-2.0659 0-3.1157-1.0837-1.0499-1.0837-1.0499-3.0988 0-2.1844 1.1853-3.3528 1.2023-1.1684 3.3867-1.1684z"/>
  <path d="m239.09 213.59q-0.3556 0.57573-0.762 0.88053t-1.016 0.37253q-0.50799 0-1.8119-0.25399-0.1524 1.2192-0.82973 2.1505-0.6604 0.93134-1.7611 1.4563-1.1007 0.508-2.4892 0.508-2.1336 0-3.3359-1.1853-1.1853-1.1853-1.1853-3.2681 0-1.2869 0.4572-2.2691 0.4572-0.99907 1.27-1.5409 0.8128-0.54187 1.8119-0.54187 0.94827 0 1.4732 0.4572 0.54186 0.4572 0.54186 1.1515 0 0.0847-0.0339 0.32174 1.5409-1.1345 2.7093-2.5061 1.1684-1.3885 1.8288-2.8448h0.1524q0.52493 0.508 0.69427 1.1515-0.57574 1.3039-2.0151 2.8109-1.4393 1.5071-3.3697 2.8109-1.9135 1.3039-3.8608 2.0828 0.27094 0.99907 1.0329 1.5579 0.76199 0.54187 1.9812 0.54187 1.5409 0 2.5569-0.84667 1.0329-0.84666 1.1176-2.2521-0.54187-0.0847-0.79587-0.0847-0.77893 0-1.3208 0.94826l-0.18626 0.0169-0.28787-0.98213q0.3556-0.59267 0.762-0.88054 0.42333-0.28786 1.0329-0.35559 0.508 0 1.9135 0.28786 0.13546 0.0169 0.82973 0.1524 0.69426 0.13547 1.1007 0.13547 0.47413 0 0.77893-0.22014 0.32174-0.22013 0.52494-0.71119l0.2032-0.0169zm-9.7028-2.54q-0.9144 0-1.4563 0.81279-0.54187 0.79587-0.54187 2.1505v0.1016q1.2023-0.47413 2.3537-1.1684 0.33867-0.27094 0.47413-0.57574 0.1524-0.32173 0.13547-0.59266-0.0339-0.3556-0.3048-0.54187-0.254-0.18626-0.6604-0.18626z"/>
  <path d="m248.95 207.8-0.1016 1.3208-1.9643-0.1016h-0.9144l-0.0847 6.079 0.0847 3.4205h-1.7611l0.1016-3.2681-0.0847-6.2314h-0.9144l-1.9981 0.1016-0.11853-0.1524 0.13547-1.3208h7.5184z"/>
  <path d="m256.06 217.16 0.11854 0.11853-0.13547 1.2361h-5.4356l0.0677-2.54-0.0677-5.9436h5.4864l0.1016 0.13546-0.11853 1.2361-2.1505-0.0847-1.6933 0.0169-0.0339 2.2013 1.6256 0.0169 1.4732-0.0508 0.0847 0.13547-0.1016 1.2531-1.5917-0.0508-1.5071 0.0169-0.0169 0.9652 0.0339 1.3885 1.5748 0.0169z"/>
  <path d="m260.84 209.93q1.0837 0 2.1675 0.42333l-0.254 1.5409-0.254 0.0508q-0.98213-0.77893-1.8627-0.77893-0.62653 0-0.99907 0.32173-0.3556 0.32173-0.3556 0.74507 0 0.42333 0.37254 0.7112 0.38946 0.27093 1.2023 0.60959 0.762 0.32174 1.2192 0.6096 0.47413 0.27094 0.8128 0.72813 0.33866 0.4572 0.33866 1.1345 0 0.69426-0.37253 1.2869-0.3556 0.59266-1.0837 0.96519-0.7112 0.3556-1.7272 0.3556-0.6096 0-1.2869-0.13546-0.67733-0.13547-1.3039-0.4064l0.22013-1.6425 0.18627-0.1016q0.49106 0.49106 1.1515 0.77893 0.67733 0.27093 1.2361 0.27093 0.6096 0 0.98213-0.3048 0.38947-0.32173 0.38947-0.77893t-0.38947-0.72813q-0.38946-0.28787-1.2023-0.62653-0.72813-0.32173-1.2023-0.59267-0.47414-0.28786-0.8128-0.74506-0.32174-0.47414-0.32174-1.1515 0-0.7112 0.37254-1.2869 0.38946-0.57573 1.1007-0.9144 0.72813-0.33866 1.6764-0.33866z"/>
  <path d="m270.78 210.17-0.1016 1.3039-1.6425-0.11854h-0.7112l-0.0339 4.4704 0.0508 2.6924h-1.6256l0.0677-2.54-0.0339-4.6228h-0.69426l-1.6764 0.11854-0.11853-0.13547 0.11853-1.3039h6.3161z"/>
  <path d="m274.2 215.83 0.0677 2.6924h-1.6256l0.0677-2.54-0.0677-5.9436h1.6425z"/>
  <path d="m284.43 215.93 0.0508 2.5908h-1.7611l-4.0132-5.9605h-0.1016l-0.0169 3.0819 0.0508 2.8787h-1.4732l0.0677-2.4892-0.0508-5.9944h1.7272l4.0132 5.9605h0.13546l-0.0508-5.9097 1.5071-0.0847z"/>
  <path d="m290.93 209.93q1.3208 0 2.6755 0.52493l-0.49106 1.5409h-0.16933q-0.64347-0.38947-1.1684-0.5588-0.508-0.16933-1.1345-0.16933-1.3208 0-1.9473 0.74506-0.62653 0.72814-0.62653 2.3707 0 1.5917 0.59266 2.2691 0.59267 0.6604 1.9473 0.6604 0.3556 0 0.67733-0.0677 0.32174-0.0677 0.79587-0.23706v-0.7112l-0.0169-1.27 1.4901-0.1016-0.0169 1.1176v2.0659q-1.7272 0.52493-3.0141 0.52493-2.0659 0-3.1157-1.0837-1.0499-1.0837-1.0499-3.0988 0-2.1844 1.1853-3.3528 1.2023-1.1684 3.3867-1.1684z"/>
 </g>
</svg>
